<?xml version="1.0" encoding="UTF-8"?>
<svg xmlns="http://www.w3.org/2000/svg" viewBox="0 0 100 100" width="300" height="300">
  <style>
    .steam { fill: none; stroke: #E76F00; stroke-width: 3; stroke-linecap: round; }
    .cup { fill: none; stroke: #5382A1; stroke-width: 4; stroke-linecap: round; }
    .saucer { fill: none; stroke: #5382A1; stroke-width: 3; stroke-linecap: round; }
  </style>
  
  <!-- Steam -->
  <path class="steam" d="M45,25 C35,15 50,5 45,0" />
  <path class="steam" d="M60,30 C65,20 45,10 60,0" />
  <path class="steam" d="M70,25 C80,15 60,5 70,0" />
  
  <!-- Cup -->
  <path class="cup" d="M30,70 Q50,90 70,70 L75,45 Q65,35 50,35 Q35,35 25,45 Z" />
  <path class="cup" d="M70,50 Q85,55 80,65 Q75,75 65,70" />
  
  <!-- Saucer -->
  <path class="saucer" d="M20,80 Q50,95 80,80" />
  <path class="saucer" d="M15,85 Q50,100 85,85" />
</svg>
